# xmcd
#
# Track frame offsets:
#	150
#	2390
#	9522
#	14990
#	21897
#	34690
#	41797
#	45877
#
# Disc length: 669 seconds
#
# Revision: 0
# Processed by: cddbd v1.5.2PL0 Copyright (c) Steve Scherf et al.
# Submitted via: audiograbber 1.82.02
#
DISCID=53029b08
DTITLE=Prince Paul - Politics Of The Business (An Unauthorized Sampling)
DYEAR=2003
DGENRE=Hip-Hop
TTITLE0=What The Hell Happened?
TTITLE1=Make Room (feat. Erick Sermon, Sy Scott and Mally G)
TTITLE2=Not Trying To Hear That (feat. Guru and Planet Asia)
TTITLE3=Crhyme Pays (feat. Beatnuts, Tash and Tony Touch)
TTITLE4=What I Need (feat. Kardinal Offishall and Sly Boogie)
TTITLE5=Chubb Rock Please Pay Paul His $2200 You Owe Him (People, Places and Thin
TTITLE5=gs)[feat. Chubb Rock, Wordsworth and MF Doom]
TTITLE6=Top Notch Artists
TTITLE7=princepaulonline.com
EXTD=Sampler CD
EXTT0=
EXTT1=
EXTT2=
EXTT3=
EXTT4=
EXTT5=
EXTT6=
EXTT7=
PLAYORDER=
